<svg width="271" height="44" viewBox="0 0 271 44" fill="none" xmlns="http://www.w3.org/2000/svg">
<path d="M206.503 33.664C206.503 34.04 206.407 34.376 206.215 34.672C206.031 34.968 205.791 35.172 205.495 35.284C206.423 35.332 207.099 35.696 207.523 36.376C207.739 36.72 207.847 37.144 207.847 37.648C207.847 38.152 207.651 38.612 207.259 39.028C206.875 39.444 206.383 39.74 205.783 39.916C205.183 40.092 204.551 40.18 203.887 40.18C202.231 40.18 201.047 39.74 200.335 38.86C199.879 38.3 199.651 37.544 199.651 36.592C199.651 36.432 199.659 36.272 199.675 36.112L199.795 36.1C199.851 37.476 200.343 38.46 201.271 39.052V32.464C201.263 32.168 201.131 31.952 200.875 31.816C200.763 31.752 200.639 31.72 200.503 31.72H200.347V31.6H203.395C204.283 31.6 205.023 31.78 205.615 32.14C206.207 32.492 206.503 33 206.503 33.664ZM203.407 39.616C204.151 39.616 204.731 39.42 205.147 39.028C205.571 38.636 205.783 38.12 205.783 37.48C205.783 37.08 205.707 36.744 205.555 36.472C205.411 36.192 205.219 35.984 204.979 35.848C204.539 35.584 204.039 35.452 203.479 35.452V35.344C203.735 35.344 203.951 35.252 204.127 35.068C204.431 34.748 204.583 34.312 204.583 33.76C204.583 33.208 204.459 32.8 204.211 32.536C203.971 32.272 203.591 32.132 203.071 32.116V39.604C203.183 39.612 203.295 39.616 203.407 39.616ZM216.183 31.72H216.015C215.775 31.72 215.547 31.788 215.331 31.924C215.115 32.06 214.943 32.224 214.815 32.416L212.451 36.184V39.124C212.451 39.332 212.527 39.512 212.679 39.664C212.831 39.808 213.011 39.88 213.219 39.88H213.363L213.375 40H209.727V39.88H209.883C210.091 39.88 210.267 39.808 210.411 39.664C210.563 39.52 210.643 39.344 210.651 39.136V36.172L208.359 32.404C208.239 32.212 208.067 32.052 207.843 31.924C207.627 31.788 207.403 31.72 207.171 31.72H207.003V31.6H210.975V31.72H210.819C210.643 31.72 210.507 31.8 210.411 31.96C210.363 32.048 210.339 32.136 210.339 32.224C210.339 32.304 210.359 32.384 210.399 32.464L212.115 35.584L213.891 32.464C213.939 32.384 213.963 32.304 213.963 32.224C213.963 32.136 213.935 32.052 213.879 31.972C213.783 31.804 213.647 31.72 213.471 31.72H213.327V31.6H216.183V31.72ZM222.605 32.128H222.089C222.073 32.128 222.061 32.128 222.053 32.128V39.124C222.061 39.42 222.189 39.64 222.437 39.784C222.557 39.848 222.685 39.88 222.821 39.88H222.977V40H219.329V39.88H219.485C219.773 39.88 219.993 39.756 220.145 39.508C220.209 39.396 220.245 39.272 220.253 39.136V32.476C220.245 32.268 220.165 32.092 220.013 31.948C219.869 31.796 219.693 31.72 219.485 31.72H219.329V31.6H223.445C224.221 31.6 224.877 31.768 225.413 32.104C225.685 32.272 225.901 32.508 226.061 32.812C226.221 33.108 226.301 33.448 226.301 33.832C226.301 34.208 226.233 34.556 226.097 34.876C225.969 35.196 225.749 35.476 225.437 35.716C225.133 35.956 224.765 36.1 224.333 36.148C224.797 36.3 225.205 36.652 225.557 37.204C226.421 38.588 227.061 39.412 227.477 39.676C227.685 39.804 227.945 39.872 228.257 39.88V40H227.081C226.401 40 225.833 39.908 225.377 39.724C224.921 39.532 224.549 39.208 224.261 38.752C224.117 38.52 223.933 38.172 223.709 37.708C223.485 37.236 223.337 36.9 223.265 36.7C223.049 36.22 222.777 35.952 222.449 35.896V35.776H222.821C223.181 35.776 223.497 35.668 223.769 35.452C224.049 35.236 224.237 34.884 224.333 34.396C224.365 34.228 224.381 34.096 224.381 34C224.381 33.344 224.249 32.872 223.985 32.584C223.721 32.288 223.381 32.136 222.965 32.128C222.885 32.128 222.765 32.128 222.605 32.128ZM235.976 31.72H235.808C235.568 31.72 235.34 31.788 235.124 31.924C234.908 32.06 234.736 32.224 234.608 32.416L232.244 36.184V39.124C232.244 39.332 232.32 39.512 232.472 39.664C232.624 39.808 232.804 39.88 233.012 39.88H233.156L233.168 40H229.52V39.88H229.676C229.884 39.88 230.06 39.808 230.204 39.664C230.356 39.52 230.436 39.344 230.444 39.136V36.172L228.152 32.404C228.032 32.212 227.86 32.052 227.636 31.924C227.42 31.788 227.196 31.72 226.964 31.72H226.796V31.6H230.768V31.72H230.612C230.436 31.72 230.3 31.8 230.204 31.96C230.156 32.048 230.132 32.136 230.132 32.224C230.132 32.304 230.152 32.384 230.192 32.464L231.908 35.584L233.684 32.464C233.732 32.384 233.756 32.304 233.756 32.224C233.756 32.136 233.728 32.052 233.672 31.972C233.576 31.804 233.44 31.72 233.264 31.72H233.12V31.6H235.976V31.72ZM238.81 32.116V35.608H240.394C240.69 35.6 240.934 35.5 241.126 35.308C241.318 35.116 241.414 34.872 241.414 34.576V34.468H241.534V37.24H241.414V37.144C241.414 36.848 241.318 36.604 241.126 36.412C240.942 36.22 240.702 36.12 240.406 36.112H238.81V39.124C238.81 39.42 238.938 39.64 239.194 39.784C239.314 39.848 239.442 39.88 239.578 39.88H239.722L239.734 40H236.086V39.88H236.242C236.45 39.88 236.626 39.808 236.77 39.664C236.922 39.512 237.002 39.332 237.01 39.124V32.44C236.994 32.24 236.91 32.072 236.758 31.936C236.614 31.792 236.442 31.72 236.242 31.72H236.086V31.6H240.682C241.074 31.6 241.398 31.572 241.654 31.516C241.91 31.452 242.066 31.408 242.122 31.384V33.412H242.002V33.292C242.002 32.94 241.898 32.66 241.69 32.452C241.49 32.236 241.214 32.124 240.862 32.116H238.81ZM250.731 39.88H250.839V40H247.011V39.88H247.119C247.295 39.88 247.423 39.828 247.503 39.724C247.591 39.612 247.635 39.508 247.635 39.412C247.635 39.316 247.615 39.22 247.575 39.124L246.987 37.648H244.179L243.555 39.124C243.515 39.228 243.495 39.328 243.495 39.424C243.495 39.512 243.535 39.612 243.615 39.724C243.703 39.828 243.839 39.88 244.023 39.88H244.119V40H241.551V39.88H241.659C241.843 39.88 242.027 39.824 242.211 39.712C242.395 39.6 242.547 39.432 242.667 39.208L245.439 32.932C245.815 32.14 246.015 31.616 246.039 31.36H246.147L249.711 39.184C249.831 39.416 249.983 39.592 250.167 39.712C250.351 39.824 250.539 39.88 250.731 39.88ZM244.383 37.144H246.783L245.619 34.192L244.383 37.144ZM251.125 39.88C251.333 39.88 251.509 39.808 251.653 39.664C251.805 39.512 251.885 39.332 251.893 39.124V32.44C251.869 32.16 251.737 31.952 251.497 31.816C251.377 31.752 251.253 31.72 251.125 31.72H250.969V31.6H255.565C255.813 31.6 256.085 31.576 256.381 31.528C256.677 31.48 256.885 31.432 257.005 31.384V33.484H256.885V33.34C256.885 32.98 256.777 32.692 256.561 32.476C256.353 32.252 256.069 32.132 255.709 32.116H253.693V35.608H255.277C255.573 35.6 255.817 35.5 256.009 35.308C256.201 35.108 256.297 34.864 256.297 34.576V34.468H256.417V37.24H256.297V37.144C256.297 36.744 256.137 36.448 255.817 36.256C255.657 36.168 255.481 36.12 255.289 36.112H253.693V39.484H255.265C255.849 39.484 256.337 39.316 256.729 38.98C257.129 38.644 257.425 38.168 257.617 37.552H257.737L257.185 40H250.969V39.88H251.125ZM269.399 39.88H269.591V40H265.991V39.892H266.171C266.307 39.892 266.423 39.84 266.519 39.736C266.615 39.624 266.655 39.504 266.639 39.376L266.171 35.02L263.915 38.908C263.619 39.404 263.467 39.848 263.459 40.24H263.339L260.255 35.056L259.787 39.376C259.771 39.504 259.811 39.624 259.907 39.736C260.003 39.84 260.119 39.892 260.255 39.892H260.435V40H257.927V39.88H258.119C258.343 39.88 258.535 39.812 258.695 39.676C258.863 39.54 258.963 39.356 258.995 39.124L259.991 31.432H260.099L263.819 37.552L267.395 31.432H267.503L268.523 39.124C268.563 39.356 268.663 39.54 268.823 39.676C268.991 39.812 269.183 39.88 269.399 39.88Z" fill="#243C4C"/>
<path d="M9.17997 7.97C9.51997 7.97 10.14 7.97 11.04 7.97C11.94 7.97 13.61 7.98 16.05 8C19.59 8.04 22.39 9 24.45 10.88C26.51 12.74 27.54 15.29 27.54 18.53C27.54 21.75 26.51 24.3 24.45 26.18C22.39 28.06 19.59 29 16.05 29H5.15997V28.7H5.54997C6.04997 28.7 6.47997 28.53 6.83997 28.19C7.21997 27.83 7.42997 27.4 7.46997 26.9V9.35C5.22997 9.51 3.56997 10.03 2.48997 10.91C1.94997 11.33 1.52997 11.76 1.22997 12.2C0.909971 12.64 0.599971 13.17 0.299971 13.79L-2.95043e-05 13.67C0.479971 11.67 1.47997 10.23 2.99997 9.35C4.53997 8.45 6.59997 7.99 9.17997 7.97ZM15.69 27.74C17.83 27.74 19.52 26.91 20.76 25.25C22.02 23.59 22.65 21.34 22.65 18.5C22.65 15.66 22.02 13.42 20.76 11.78C19.52 10.14 17.85 9.32 15.75 9.32C15.73 9.32 15.71 9.32 15.69 9.32H11.97V27.74H15.69ZM29.9032 28.7C30.4232 28.7 30.8632 28.52 31.2232 28.16C31.6032 27.78 31.8032 27.33 31.8232 26.81V10.1C31.7632 9.4 31.4332 8.88 30.8332 8.54C30.5332 8.38 30.2232 8.3 29.9032 8.3H29.5132V8H41.0032C41.6232 8 42.3032 7.94 43.0432 7.82C43.7832 7.7 44.3032 7.58 44.6032 7.46V12.71H44.3032V12.35C44.3032 11.45 44.0332 10.73 43.4932 10.19C42.9732 9.63 42.2632 9.33 41.3632 9.29H36.3232V18.02H40.2832C41.0232 18 41.6332 17.75 42.1132 17.27C42.5932 16.77 42.8332 16.16 42.8332 15.44V15.17H43.1332V22.1H42.8332V21.86C42.8332 20.86 42.4332 20.12 41.6332 19.64C41.2332 19.42 40.7932 19.3 40.3132 19.28H36.3232V27.71H40.2532C41.7132 27.71 42.9332 27.29 43.9132 26.45C44.9132 25.61 45.6532 24.42 46.1332 22.88H46.4332L45.0532 29H29.5132V28.7H29.9032ZM83.089 28.7H83.569V29H74.569V28.73H75.019C75.359 28.73 75.649 28.6 75.889 28.34C76.129 28.06 76.229 27.76 76.189 27.44L75.019 16.55L69.379 26.27C68.639 27.51 68.259 28.62 68.239 29.6H67.939L60.229 16.64L59.059 27.44C59.019 27.76 59.119 28.06 59.359 28.34C59.599 28.6 59.889 28.73 60.229 28.73H60.679V29H54.409V28.7H54.889C55.449 28.7 55.929 28.53 56.329 28.19C56.749 27.85 56.999 27.39 57.079 26.81L59.569 7.58H59.839L69.139 22.88L78.079 7.58H78.349L80.899 26.81C80.999 27.39 81.249 27.85 81.649 28.19C82.069 28.53 82.549 28.7 83.089 28.7ZM84.9227 28.7C85.4427 28.7 85.8827 28.52 86.2427 28.16C86.6227 27.78 86.8227 27.33 86.8427 26.81V10.1C86.7827 9.4 86.4527 8.88 85.8527 8.54C85.5527 8.38 85.2427 8.3 84.9227 8.3H84.5327V8H96.0227C96.6427 8 97.3227 7.94 98.0627 7.82C98.8027 7.7 99.3227 7.58 99.6227 7.46V12.71H99.3227V12.35C99.3227 11.45 99.0527 10.73 98.5127 10.19C97.9927 9.63 97.2827 9.33 96.3827 9.29H91.3427V18.02H95.3027C96.0427 18 96.6527 17.75 97.1327 17.27C97.6127 16.77 97.8527 16.16 97.8527 15.44V15.17H98.1527V22.1H97.8527V21.86C97.8527 20.86 97.4527 20.12 96.6527 19.64C96.2527 19.42 95.8127 19.3 95.3327 19.28H91.3427V27.71H95.2727C96.7327 27.71 97.9527 27.29 98.9327 26.45C99.9327 25.61 100.673 24.42 101.153 22.88H101.453L100.073 29H84.5327V28.7H84.9227ZM122.898 7.58C126.598 7.58 129.538 8.56 131.718 10.52C133.898 12.48 134.988 15.14 134.988 18.5C134.988 21.86 133.898 24.52 131.718 26.48C129.538 28.44 126.598 29.42 122.898 29.42C119.198 29.42 116.258 28.44 114.078 26.48C111.898 24.52 110.808 21.86 110.808 18.5C110.808 16.28 111.298 14.35 112.278 12.71C113.278 11.05 114.688 9.78 116.508 8.9C118.328 8.02 120.458 7.58 122.898 7.58ZM117.648 25.58C118.948 27.3 120.698 28.16 122.898 28.16C125.098 28.16 126.838 27.3 128.118 25.58C129.418 23.84 130.068 21.48 130.068 18.5C130.068 16.54 129.778 14.83 129.198 13.37C128.618 11.91 127.788 10.79 126.708 10.01C125.628 9.23 124.358 8.84 122.898 8.84C120.698 8.84 118.948 9.71 117.648 11.45C116.368 13.17 115.728 15.52 115.728 18.5C115.728 21.48 116.368 23.84 117.648 25.58ZM164.212 28.7H164.692V29H155.692V28.73H156.142C156.482 28.73 156.772 28.6 157.012 28.34C157.252 28.06 157.352 27.76 157.312 27.44L156.142 16.55L150.502 26.27C149.762 27.51 149.382 28.62 149.362 29.6H149.062L141.352 16.64L140.182 27.44C140.142 27.76 140.242 28.06 140.482 28.34C140.722 28.6 141.012 28.73 141.352 28.73H141.802V29H135.532V28.7H136.012C136.572 28.7 137.052 28.53 137.452 28.19C137.872 27.85 138.122 27.39 138.202 26.81L140.692 7.58H140.962L150.262 22.88L159.202 7.58H159.472L162.022 26.81C162.122 27.39 162.372 27.85 162.772 28.19C163.192 28.53 163.672 28.7 164.212 28.7ZM188.906 8.3C188.406 8.3 187.976 8.48 187.616 8.84C187.256 9.18 187.066 9.6 187.046 10.1V25.58C187.046 26.92 187.136 28.05 187.316 28.97L187.406 29.42H187.136L171.986 14.99V26.9C171.986 27.4 172.166 27.83 172.526 28.19C172.886 28.53 173.316 28.7 173.816 28.7H174.386V29H165.296V28.7H165.836C166.356 28.7 166.796 28.53 167.156 28.19C167.516 27.83 167.696 27.39 167.696 26.87V11.3C167.696 9.98 167.606 8.88 167.426 8L167.366 7.55H167.636L182.786 21.98V10.13C182.766 9.61 182.576 9.18 182.216 8.84C181.856 8.48 181.426 8.3 180.926 8.3H180.386V8H189.476V8.3H188.906ZM191.534 28.7C192.054 28.7 192.494 28.52 192.854 28.16C193.234 27.78 193.434 27.33 193.454 26.81V10.16C193.434 9.64 193.234 9.2 192.854 8.84C192.494 8.48 192.054 8.3 191.534 8.3H191.144V8H200.264L200.234 8.3H199.874C199.354 8.3 198.904 8.48 198.524 8.84C198.144 9.2 197.954 9.64 197.954 10.16V26.81C197.954 27.33 198.144 27.78 198.524 28.16C198.904 28.52 199.354 28.7 199.874 28.7H200.234L200.264 29H191.144V28.7H191.534ZM223.069 28.7H223.339V29H213.769V28.7H214.039C214.479 28.7 214.799 28.57 214.999 28.31C215.219 28.03 215.329 27.77 215.329 27.53C215.329 27.29 215.279 27.05 215.179 26.81L213.709 23.12H206.689L205.129 26.81C205.029 27.07 204.979 27.32 204.979 27.56C204.979 27.78 205.079 28.03 205.279 28.31C205.499 28.57 205.839 28.7 206.299 28.7H206.539V29H200.119V28.7H200.389C200.849 28.7 201.309 28.56 201.769 28.28C202.229 28 202.609 27.58 202.909 27.02L209.839 11.33C210.779 9.35 211.279 8.04 211.339 7.4H211.609L220.519 26.96C220.819 27.54 221.199 27.98 221.659 28.28C222.119 28.56 222.589 28.7 223.069 28.7ZM207.199 21.86H213.199L210.289 14.48L207.199 21.86Z" fill="#243C4C"/>
</svg>
